<?xml version="1.0" encoding="utf-8"?>
<!-- Generator: Adobe Illustrator 16.0.0, SVG Export Plug-In . SVG Version: 6.00 Build 0)  -->
<!DOCTYPE svg PUBLIC "-//W3C//DTD SVG 1.1//EN" "http://www.w3.org/Graphics/SVG/1.1/DTD/svg11.dtd">
<svg version="1.1" id="Layer_1" xmlns="http://www.w3.org/2000/svg" xmlns:xlink="http://www.w3.org/1999/xlink" x="0px" y="0px"
	 width="32px" height="32px" viewBox="0 0 32 32" enable-background="new 0 0 32 32" xml:space="preserve">
<g>
	<path fill="#FFFFFF" d="M7.229,29.237c7.503-7.502,15.005-15.004,22.508-22.507c2.881-2.882-1.584-7.347-4.465-4.465
		C17.769,9.767,10.266,17.27,2.763,24.773C-0.118,27.655,4.348,32.119,7.229,29.237L7.229,29.237z"/>
</g>
<g>
	<path fill="#FFFFFF" d="M2.764,6.73c7.502,7.503,15.005,15.005,22.508,22.507c2.882,2.882,7.346-1.584,4.465-4.464
		C22.232,17.27,14.731,9.767,7.229,2.265C4.348-0.617-0.118,3.848,2.764,6.73L2.764,6.73z"/>
</g>
</svg>
