<?xml version="1.0" encoding="utf-8"?>
<!-- Generator: Adobe Illustrator 16.0.0, SVG Export Plug-In . SVG Version: 6.00 Build 0)  -->
<!DOCTYPE svg PUBLIC "-//W3C//DTD SVG 1.1//EN" "http://www.w3.org/Graphics/SVG/1.1/DTD/svg11.dtd">
<svg version="1.1" id="Layer_1" xmlns="http://www.w3.org/2000/svg" xmlns:xlink="http://www.w3.org/1999/xlink" x="0px" y="0px"
	 width="32px" height="32px" viewBox="0 0 32 32" enable-background="new 0 0 32 32" xml:space="preserve">
<title>paint</title>
<path fill="#C76161" d="M32,18V6h-6V4c0-1.1-0.9-2-2-2H2C0.9,2,0,2.9,0,4v6c0,1.1,0.9,2,2,2h22c1.1,0,2-0.9,2-2V8h4v8H12v4h-1
	c-0.552,0-1,0.448-1,1v10c0,0.552,0.448,1,1,1h4c0.552,0,1-0.448,1-1V21c0-0.552-0.448-1-1-1h-1v-2H32z M24,6H2V4h22V6z"/>
</svg>
