<?xml version="1.0" encoding="utf-8"?>
<!-- Generator: Adobe Illustrator 16.0.0, SVG Export Plug-In . SVG Version: 6.00 Build 0)  -->
<!DOCTYPE svg PUBLIC "-//W3C//DTD SVG 1.1//EN" "http://www.w3.org/Graphics/SVG/1.1/DTD/svg11.dtd">
<svg version="1.1" id="Layer_1" xmlns="http://www.w3.org/2000/svg" xmlns:xlink="http://www.w3.org/1999/xlink" x="0px" y="0px"
	 width="144px" height="144px" viewBox="0 0 144 144" enable-background="new 0 0 144 144" xml:space="preserve">
<path fill="#7B3D5A" stroke="#7B3D5A" stroke-miterlimit="10" d="M127.289,43.034c-30.304,29.863-60.192,60.147-90.484,90.022
	c-0.645-0.472-1.352-0.88-2.058-1.295c-0.323-0.218-0.543-0.565-0.809-0.9c-0.424-0.532-1.251-0.913-1.935-1.159
	c-0.019-0.018-0.042-0.03-0.061-0.049c-0.49-0.491-0.981-0.981-1.473-1.474c-0.297-0.298-0.624-0.427-0.951-0.491
	c-1.66-1.465-3.325-2.928-5.042-4.268c-4.786-3.74-9.157-7.963-13.615-12.055c30.374-29.95,60.338-60.314,90.72-90.256
	c1.741-1.715-0.938-4.39-2.676-2.676C68.18,48.715,37.885,79.43,7.158,109.71c-1.025,0.556-1.602,1.932-0.494,2.934
	c4.675,4.222,9.42,8.346,14.192,12.535c2.195,1.927,4.19,4.019,6.532,5.789c1.332,1.005,2.513,2.189,3.846,3.188
	c0.121,0.091,0.35,0.226,0.633,0.387c0.454,0.438,0.923,0.859,1.513,1.183c0.059,0.031,0.113,0.026,0.17,0.054
	c0.078,0.071,0.149,0.15,0.233,0.214c0.494,0.377,1.108,0.611,1.58,1.013c0.318,0.27,0.658,0.377,0.998,0.425
	c0.586,0.204,1.256,0.146,1.833-0.423c30.733-30.287,61.037-61.01,91.77-91.297C131.705,43.995,129.027,41.32,127.289,43.034z"/>
<line fill="#7B3D5A" stroke="#7B3D5A" stroke-width="4" stroke-miterlimit="10" x1="23.14" y1="94.273" x2="52.468" y2="119.582"/>
<line fill="#7B3D5A" stroke="#7B3D5A" stroke-width="4" stroke-miterlimit="10" x1="100.719" y1="19.771" x2="138.325" y2="9.128"/>
<line fill="#7B3D5A" stroke="#7B3D5A" stroke-width="4" stroke-miterlimit="10" x1="137.614" y1="9.128" x2="128.626" y2="44.843"/>
<line fill="#7B3D5A" stroke="#7B3D5A" stroke-width="4" stroke-miterlimit="10" x1="100.719" y1="19.771" x2="127.289" y2="43.034"/>
<path fill="#7B3D5A" stroke="#7B3D5A" stroke-miterlimit="10" d="M137.736,13.141c0.142-0.038,0.271-0.102,0.403-0.164
	c0.1-0.044,0.282-0.085,0.339-0.188c0.025-0.05,0.025-0.123,0.054-0.176c0.03-0.059,0.066-0.114,0.105-0.169
	c0.217-0.303,0.306-0.652,0.391-1.008c0.047-0.204,0.062-0.417,0.097-0.623c0.068-0.393,0.221-0.764,0.277-1.158
	c0.028-0.201,0.07-0.387,0.068-0.59c-0.004-0.194,0.006-0.388,0.002-0.582c-0.002-0.178-0.07-0.339-0.185-0.475
	c-0.113-0.134-0.216-0.281-0.329-0.412c-0.104-0.118-0.308-0.187-0.456-0.229c-0.13-0.037-0.27-0.069-0.404-0.077
	c-0.167-0.01-0.335,0.011-0.498,0.043c-0.075,0.015-0.508,0.076-0.535,0.14c0.009-0.021-0.141-0.005-0.484,0.062
	c-0.198,0.058-0.396,0.116-0.591,0.174c-0.213,0.079-0.323,0.123-0.387,0.155c-0.174,0.053-0.342,0.122-0.539,0.207
	c-0.718,0.308-1.006,1.154-0.896,1.892c-0.041,0.06-0.085,0.117-0.119,0.181c-0.09,0.097-0.18,0.199-0.271,0.289
	c-0.317-0.242-0.643-0.358-0.96-0.415c-0.111-0.088-0.21-0.184-0.338-0.265c-1.382-0.874-2.873,0.43-2.835,1.739
	c-0.221,0.59-0.185,1.275,0.365,1.872c1.387,1.509,2.758,3.242,4.737,4.017c0.775,0.304,1.744-0.195,2.136-0.853
	c0.258-0.43,0.29-0.862,0.192-1.275c0.081-0.401,0.035-0.833-0.192-1.238c-0.028-0.05-0.061-0.096-0.09-0.147
	c0.035-0.237-0.006-0.495-0.093-0.759c0.009,0.027,0.218,0.053,0.249,0.059c0.088,0.014,0.178,0.021,0.267,0.021
	C137.391,13.193,137.568,13.186,137.736,13.141z"/>
</svg>
